<svg width="0" height="0" class="hidden">
  <symbol xmlns="http://www.w3.org/2000/svg" fill="none" stroke="currentColor" stroke-width="1.5" stroke-linecap="round" stroke-linejoin="round" viewBox="0 0 24 24" id="accessible">
    <path stroke="none" d="M0 0h24v24H0z" fill="none"></path>
    <path d="M12 12m-9 0a9 9 0 1 0 18 0a9 9 0 1 0 -18 0"></path>
    <path d="M10 16.5l2 -3l2 3m-2 -3v-2l3 -1m-6 0l3 1"></path>
    <circle cx="12" cy="7.5" r=".5" fill="currentColor"></circle>
  </symbol>
  <symbol xmlns="http://www.w3.org/2000/svg" fill="none" stroke="currentColor" stroke-width="1.5" stroke-linecap="round" stroke-linejoin="round" viewBox="0 0 24 24" id="accessible-off">
    <path stroke="none" d="M0 0h24v24H0z" fill="none"></path>
    <path d="M10 16.5l2 -3l2 3m-2 -3v-1.5m2.627 -1.376l.373 -.124m-6 0l2.231 .744"></path>
    <path d="M20.042 16.045a9 9 0 0 0 -12.087 -12.087m-2.318 1.677a9 9 0 1 0 12.725 12.73"></path>
    <path d="M12 8a.5 .5 0 1 0 -.5 -.5"></path>
    <path d="M3 3l18 18"></path>
  </symbol>
  <symbol xmlns="http://www.w3.org/2000/svg" fill="none" stroke="currentColor" stroke-width="1.5" stroke-linecap="round" stroke-linejoin="round" viewBox="0 0 24 24" id="category">
    <path stroke="none" d="M0 0h24v24H0z" fill="none"></path>
    <path d="M4 4h6v6h-6z"></path>
    <path d="M14 4h6v6h-6z"></path>
    <path d="M4 14h6v6h-6z"></path>
    <path d="M17 17m-3 0a3 3 0 1 0 6 0a3 3 0 1 0 -6 0"></path>
  </symbol>
  <symbol xmlns="http://www.w3.org/2000/svg" fill="none" stroke="currentColor" stroke-width="1.5" stroke-linecap="round" stroke-linejoin="round" viewBox="0 0 24 24" id="category-2">
    <path stroke="none" d="M0 0h24v24H0z" fill="none"></path>
    <path d="M14 4h6v6h-6z"></path>
    <path d="M4 14h6v6h-6z"></path>
    <path d="M17 17m-3 0a3 3 0 1 0 6 0a3 3 0 1 0 -6 0"></path>
    <path d="M7 7m-3 0a3 3 0 1 0 6 0a3 3 0 1 0 -6 0"></path>
  </symbol>
  <symbol xmlns="http://www.w3.org/2000/svg" fill="none" stroke="currentColor" stroke-width="1.5" stroke-linecap="round" stroke-linejoin="round" viewBox="0 0 24 24" id="language">
    <path stroke="none" d="M0 0h24v24H0z" fill="none"></path>
    <path d="M4 5h7"></path>
    <path d="M9 3v2c0 4.418 -2.239 8 -5 8"></path>
    <path d="M5 9c0 2.144 2.952 3.908 6.7 4"></path>
    <path d="M12 20l4 -9l4 9"></path>
    <path d="M19.1 18h-6.2"></path>
  </symbol>
  <symbol xmlns="http://www.w3.org/2000/svg" fill="none" stroke="currentColor" stroke-width="1.5" stroke-linecap="round" stroke-linejoin="round" viewBox="0 0 24 24" id="language-hiragana">
    <path stroke="none" d="M0 0h24v24H0z" fill="none"></path>
    <path d="M4 5h7"></path>
    <path d="M7 4c0 4.846 0 7 .5 8"></path>
    <path d="M10 8.5c0 2.286 -2 4.5 -3.5 4.5s-2.5 -1.135 -2.5 -2c0 -2 1 -3 3 -3s5 .57 5 2.857c0 1.524 -.667 2.571 -2 3.143"></path>
    <path d="M12 20l4 -9l4 9"></path>
    <path d="M19.1 18h-6.2"></path>
  </symbol>
  <symbol xmlns="http://www.w3.org/2000/svg" fill="none" stroke="currentColor" stroke-width="1.5" stroke-linecap="round" stroke-linejoin="round" viewBox="0 0 24 24" id="language-off">
    <path stroke="none" d="M0 0h24v24H0z" fill="none"></path>
    <path d="M4 5h1m4 0h2"></path>
    <path d="M9 3v2m-.508 3.517c-.814 2.655 -2.52 4.483 -4.492 4.483"></path>
    <path d="M5 9c0 2.144 2.952 3.908 6.7 4"></path>
    <path d="M12 20l2.463 -5.541m1.228 -2.764l.309 -.695l.8 1.8"></path>
    <path d="M18 18h-5.1"></path>
    <path d="M3 3l18 18"></path>
  </symbol>
  <symbol xmlns="http://www.w3.org/2000/svg" fill="none" stroke="currentColor" stroke-width="1.5" stroke-linecap="round" stroke-linejoin="round" viewBox="0 0 24 24" id="tag">
    <path stroke="none" d="M0 0h24v24H0z" fill="none"></path>
    <path d="M7.5 7.5m-1 0a1 1 0 1 0 2 0a1 1 0 1 0 -2 0"></path>
    <path d="M3 6v5.172a2 2 0 0 0 .586 1.414l7.71 7.71a2.41 2.41 0 0 0 3.408 0l5.592 -5.592a2.41 2.41 0 0 0 0 -3.408l-7.71 -7.71a2 2 0 0 0 -1.414 -.586h-5.172a3 3 0 0 0 -3 3z"></path>
  </symbol>
  <symbol xmlns="http://www.w3.org/2000/svg" fill="none" stroke="currentColor" stroke-width="1.5" stroke-linecap="round" stroke-linejoin="round" viewBox="0 0 24 24" id="tag-off">
    <path stroke="none" d="M0 0h24v24H0z" fill="none"></path>
    <path d="M7.149 7.144a.498 .498 0 0 0 .351 .856a.498 .498 0 0 0 .341 -.135"></path>
    <path d="M3.883 3.875a2.99 2.99 0 0 0 -.883 2.125v5.172a2 2 0 0 0 .586 1.414l7.71 7.71a2.41 2.41 0 0 0 3.408 0l2.796 -2.796m2.005 -2.005l.79 -.79a2.41 2.41 0 0 0 0 -3.41l-7.71 -7.71a2 2 0 0 0 -1.412 -.585h-4.173"></path>
    <path d="M3 3l18 18"></path>
  </symbol>
  <symbol xmlns="http://www.w3.org/2000/svg" fill="none" stroke="currentColor" stroke-width="1.5" stroke-linecap="round" stroke-linejoin="round" viewBox="0 0 24 24" id="tags">
    <path stroke="none" d="M0 0h24v24H0z" fill="none"></path>
    <path d="M3 8v4.172a2 2 0 0 0 .586 1.414l5.71 5.71a2.41 2.41 0 0 0 3.408 0l3.592 -3.592a2.41 2.41 0 0 0 0 -3.408l-5.71 -5.71a2 2 0 0 0 -1.414 -.586h-4.172a2 2 0 0 0 -2 2z"></path>
    <path d="M18 19l1.592 -1.592a4.82 4.82 0 0 0 0 -6.816l-4.592 -4.592"></path>
    <path d="M7 10h-.01"></path>
  </symbol>
  <symbol xmlns="http://www.w3.org/2000/svg" fill="none" stroke="currentColor" stroke-width="1.5" stroke-linecap="round" stroke-linejoin="round" viewBox="0 0 24 24" id="tags-off">
    <path stroke="none" d="M0 0h24v24H0z" fill="none"></path>
    <path d="M16.296 12.296l-5.71 -5.71"></path>
    <path d="M6 6h-1a2 2 0 0 0 -2 2v4.172a2 2 0 0 0 .586 1.414l5.71 5.71a2.41 2.41 0 0 0 3.408 0l3.278 -3.278"></path>
    <path d="M18 19l.496 -.496"></path>
    <path d="M20.384 16.367a4.822 4.822 0 0 0 -.792 -5.775l-4.592 -4.592"></path>
    <path d="M7 10h-.01"></path>
    <path d="M3 3l18 18"></path>
  </symbol>
  <symbol xmlns="http://www.w3.org/2000/svg" fill="none" stroke="currentColor" stroke-width="1.5" stroke-linecap="round" stroke-linejoin="round" viewBox="0 0 24 24" id="tag-starred">
    <path stroke="none" d="M0 0h24v24H0z" fill="none"></path>
    <path d="M7.5 7.5m-1 0a1 1 0 1 0 2 0a1 1 0 1 0 -2 0"></path>
    <path d="M3 6v5.172a2 2 0 0 0 .586 1.414l7.71 7.71a2.41 2.41 0 0 0 3.408 0l5.592 -5.592a2.41 2.41 0 0 0 0 -3.408l-7.71 -7.71a2 2 0 0 0 -1.414 -.586h-5.172a3 3 0 0 0 -3 3z"></path>
    <path d="M12.5 13.847l-1.5 1.153l.532 -1.857l-1.532 -1.143h1.902l.598 -1.8l.598 1.8h1.902l-1.532 1.143l.532 1.857z"></path>
  </symbol>
</svg>
